<svg width="156" height="70" viewBox="0 0 156 70" fill="none" xmlns="http://www.w3.org/2000/svg">
<rect width="156" height="70" rx="8" fill="#B21063"/>
<rect x="86" width="70" height="70" rx="16" fill="#B31063"/>
<path d="M145.655 40.5705H144.321C144.283 40.5705 144.252 40.5257 144.267 40.4809L144.98 37.9189C144.996 37.8741 144.965 37.8293 144.927 37.8293H143.033C143.01 37.8293 142.987 37.8472 142.979 37.8741L142.243 40.5168C142.236 40.5436 142.213 40.5616 142.19 40.5616H140.066C140.028 40.5616 139.997 40.5168 140.013 40.472L140.726 37.9099C140.741 37.8651 140.71 37.8204 140.672 37.8204H138.847C138.824 37.8204 138.801 37.8383 138.794 37.8651L136.877 44.754C136.862 44.7988 136.892 44.8436 136.931 44.8436H138.755C138.778 44.8436 138.801 44.8257 138.809 44.7988L139.545 42.1472C139.553 42.1203 139.576 42.1024 139.599 42.1024H141.722C141.76 42.1024 141.791 42.1472 141.776 42.192L141.063 44.754C141.047 44.7988 141.078 44.8436 141.116 44.8436H143.01C143.033 44.8436 143.056 44.8257 143.064 44.7988L143.8 42.1472C143.807 42.1203 143.83 42.1024 143.853 42.1024H145.256C145.279 42.1024 145.302 42.0845 145.31 42.0576L145.659 40.7936C145.682 40.7109 145.741 40.5705 145.655 40.5705V40.5705Z" fill="white"/>
<path d="M127.617 37.8291H122.618C122.595 37.8291 122.572 37.847 122.565 37.8739L120.656 44.7448C120.641 44.7896 120.671 44.8344 120.71 44.8344H122.534C122.557 44.8344 122.58 44.8165 122.588 44.7896L122.971 43.3832C122.979 43.3563 123.002 43.3384 123.025 43.3384H125.148C125.187 43.3384 125.217 43.3832 125.202 43.428L124.842 44.7448C124.826 44.7896 124.857 44.8344 124.895 44.8344H126.789C126.812 44.8344 126.835 44.8165 126.843 44.7896L128.414 39.128C128.606 38.492 128.192 37.8291 127.617 37.8291ZM125.547 42.0932H123.423C123.385 42.0932 123.354 42.0484 123.37 42.0036L124.098 39.3878C124.106 39.361 124.129 39.343 124.152 39.343H126.275C126.314 39.343 126.344 39.3878 126.329 39.4326L125.601 42.0484C125.593 42.0753 125.57 42.0932 125.547 42.0932Z" fill="white"/>
<path d="M107.608 37.883L105.699 44.754C105.684 44.7988 105.714 44.8436 105.753 44.8436H110.329C110.352 44.8436 110.375 44.8256 110.383 44.7988L110.766 43.4192C110.782 43.3744 110.751 43.3296 110.713 43.3296H107.846C107.807 43.3296 107.777 43.2848 107.792 43.24L108.083 42.1471C108.091 42.1203 108.114 42.1024 108.137 42.1024H111.088C111.111 42.1024 111.134 42.0844 111.142 42.0576L111.525 40.669C111.541 40.6242 111.51 40.5795 111.472 40.5795H108.597C108.559 40.5795 108.528 40.5347 108.543 40.4899L108.842 39.4059C108.85 39.3791 108.873 39.3611 108.896 39.3611H111.847C111.87 39.3611 111.893 39.3432 111.901 39.3163L112.284 37.9368C112.3 37.892 112.269 37.8472 112.231 37.8472H107.727C107.681 37.8472 107.618 37.8377 107.608 37.883V37.883Z" fill="white"/>
<path d="M102.349 37.8292H97.5036C97.4806 37.8292 97.4576 37.8471 97.4499 37.874L97.0666 39.2535C97.0513 39.2983 97.082 39.3431 97.1203 39.3431H98.4465C98.4849 39.3431 98.5155 39.3879 98.5002 39.4327L97.0206 44.7449C97.0053 44.7897 97.036 44.8345 97.0743 44.8345H101.16C102.809 44.8345 104.273 43.5893 104.787 41.7618C105.331 39.8179 104.089 37.8292 102.349 37.8292ZM102.878 41.3318C102.648 42.1649 101.981 42.7293 101.229 42.7293V42.7293C100.216 42.7293 99.4661 41.7636 99.7372 40.7875V40.7875C99.9213 40.1245 100.525 39.6656 101.213 39.6656H101.843C102.586 39.6656 103.108 40.5077 102.878 41.3318Z" fill="white"/>
<path d="M118.992 37.8291H114.224C114.201 37.8291 114.178 37.847 114.17 37.8739L112.261 44.7448C112.246 44.7896 112.276 44.8344 112.315 44.8344H114.17C114.193 44.8344 114.216 44.8165 114.224 44.7896L114.96 42.147C114.967 42.1111 114.99 42.0932 115.021 42.0932H115.182V42.0932C115.235 42.0932 115.253 42.1627 115.272 42.2118L116.294 44.7986C116.301 44.8255 116.324 44.8344 116.347 44.8344H118.494C118.54 44.8344 118.57 44.7717 118.54 44.7269L117.58 43.01C117.351 42.5993 117.648 42.0932 118.118 42.0932V42.0932C118.67 42.0932 119.161 41.6811 119.329 41.063L119.851 39.1997C120.035 38.5278 119.605 37.8291 118.992 37.8291ZM117.451 40.5703H115.473C115.435 40.5703 115.404 40.5255 115.42 40.4807L115.719 39.3968C115.726 39.3699 115.749 39.352 115.772 39.352H117.75C117.788 39.352 117.819 39.3968 117.804 39.4416L117.505 40.5255C117.497 40.5524 117.482 40.5703 117.451 40.5703Z" fill="white"/>
<path d="M135.544 37.8292H130.553C130.53 37.8292 130.507 37.8471 130.5 37.874L128.591 44.7449C128.576 44.7897 128.606 44.8345 128.645 44.8345H130.469C130.492 44.8345 130.515 44.8166 130.523 44.7897L130.906 43.3833C130.914 43.3564 130.937 43.3385 130.96 43.3385H133.083C133.122 43.3385 133.152 43.3833 133.137 43.428L132.777 44.7449C132.761 44.7897 132.792 44.8345 132.83 44.8345H134.724C134.747 44.8345 134.77 44.8166 134.778 44.7897L136.349 39.1281C136.533 38.4921 136.119 37.8292 135.544 37.8292ZM133.467 42.0933H131.343C131.305 42.0933 131.274 42.0485 131.289 42.0037L132.018 39.3879C132.025 39.361 132.048 39.3431 132.071 39.3431H134.195C134.233 39.3431 134.264 39.3879 134.249 39.4327L133.541 41.9731C133.527 42.0231 133.519 42.0933 133.467 42.0933V42.0933Z" fill="white"/>
<path d="M130.568 28.9447H125.394C125.325 28.9447 125.271 28.891 125.248 28.8193L124.834 27.3233C124.803 27.2068 124.872 27.0904 124.98 27.0904H129.955C130.055 27.0904 130.131 26.9739 130.101 26.8575L129.61 25.0927C129.587 25.021 129.533 24.9673 129.464 24.9673H123.094C122.657 24.9673 122.342 25.4689 122.48 25.9527L123.247 28.7028C123.278 28.8193 123.209 28.9358 123.101 28.9358H107.263C107.194 28.9358 107.14 28.882 107.117 28.8103L105.829 24.1879C105.806 24.1162 105.753 24.0625 105.684 24.0625H103.905C103.806 24.0625 103.729 24.179 103.76 24.2954L103.882 24.7344C103.913 24.8508 103.844 24.9673 103.737 24.9673H98.3166C97.9256 24.9673 97.6496 25.4152 97.7646 25.8452L98.5619 28.7028C98.5926 28.8193 98.5236 28.9358 98.4163 28.9358H97.09C96.9903 28.9358 96.9137 29.0522 96.9443 29.1687L97.4426 30.9693C97.4656 31.0409 97.5193 31.0947 97.5883 31.0947H131.059C131.159 31.0947 131.235 30.9782 131.205 30.8618L130.706 29.0612C130.691 28.9895 130.637 28.9447 130.568 28.9447ZM100.586 28.8193L100.172 27.3233C100.141 27.2068 100.21 27.0904 100.317 27.0904H104.434C104.503 27.0904 104.557 27.1441 104.58 27.2158L104.994 28.7118C105.025 28.8283 104.956 28.9447 104.848 28.9447H100.731C100.662 28.9447 100.609 28.891 100.586 28.8193Z" fill="white"/>
<path d="M131.88 24.9675H133.505C133.574 24.9675 133.627 25.0212 133.65 25.0929L135.851 33.003C136.004 33.5494 135.651 34.1049 135.161 34.1049H131.251C131.182 34.1049 131.128 34.0511 131.105 33.9794L130.607 32.2057C130.576 32.0893 130.645 31.9728 130.753 31.9728H133.405C133.505 31.9728 133.581 31.8563 133.551 31.7399L131.734 25.2004C131.703 25.0839 131.78 24.9675 131.88 24.9675Z" fill="white"/>
<path d="M135.367 24.9675H142.474C142.543 24.9675 142.597 25.0212 142.62 25.0929L143.655 28.8195C143.678 28.8912 143.731 28.9449 143.8 28.9449H145.019C145.088 28.9449 145.142 28.9987 145.165 29.0703L145.663 30.8709C145.694 30.9874 145.625 31.1039 145.517 31.1039H136.97C136.901 31.1039 136.847 31.0501 136.824 30.9784L136.326 29.1778C136.295 29.0614 136.364 28.9449 136.471 28.9449H141.385C141.485 28.9449 141.562 28.8285 141.531 28.712L141.117 27.216C141.094 27.1443 141.04 27.0906 140.971 27.0906H135.858C135.789 27.0906 135.735 27.0368 135.712 26.9652L135.222 25.2004C135.191 25.0839 135.26 24.9675 135.367 24.9675Z" fill="white"/>
<line x1="84.5" y1="14" x2="84.5" y2="60" stroke="white"/>
<path d="M18.4473 29.0361C17.7227 29.0361 17.1393 28.8151 16.6973 28.373C16.2598 27.9264 16.041 27.3385 16.041 26.6094C16.041 25.9076 16.262 25.2969 16.7041 24.7773C17.1462 24.2533 17.7887 23.8431 18.6318 23.5469L20.3271 22.959V21.7969H21.9199V26.7803C21.9199 27.2816 22.0544 27.653 22.3232 27.8945C22.5967 28.1315 23.0182 28.25 23.5879 28.25V29.6377L23.2256 30C22.387 30 21.7376 29.8245 21.2773 29.4736C20.8171 29.1182 20.5231 28.5758 20.3955 27.8467C20.0309 28.6396 19.3815 29.0361 18.4473 29.0361ZM19.0967 20.9014L18.0029 19.8076L19.0967 18.7139L20.0195 19.6367L20.9424 18.7139L22.0361 19.8076L20.9424 20.9014L20.0195 19.9785L19.0967 20.9014ZM17.2852 26.3154C17.2852 26.6025 17.4059 26.8327 17.6475 27.0059C17.889 27.1745 18.2171 27.2588 18.6318 27.2588C19.762 27.2588 20.3271 26.8418 20.3271 26.0078V24.374L18.6865 24.9619C17.7523 25.29 17.2852 25.7412 17.2852 26.3154ZM23.2256 30V28.5986L23.5879 28.25H24.668V29.6514L24.2988 30H23.2256ZM24.3057 30V28.5986L24.668 28.25H25.748V29.6514L25.3789 30H24.3057ZM25.3857 30V28.5986L25.748 28.25H26.8281V29.6514L26.459 30H25.3857ZM26.4658 30V28.5986L26.8281 28.25H27.9082V29.6514L27.5391 30H26.4658ZM27.5459 30V28.5986L27.9082 28.25H28.9883V29.6514L28.6191 30H27.5459ZM28.626 30V28.5986L28.9883 28.25H30.0684V29.6514L29.6992 30H28.626ZM29.7061 30V28.5986L30.0684 28.25H31.1484V29.6514L30.7793 30H29.7061ZM30.7861 30V28.5986L31.1484 28.25H32.2285V29.6514L31.8594 30H30.7861ZM31.8662 30V28.5986L32.2285 28.25H33.3086V29.6514L32.9395 30H31.8662ZM32.9463 30V28.5986L33.3086 28.25H34.3887V29.6514L34.0195 30H32.9463ZM34.0264 30V28.5986L34.3887 28.25H35.4688V29.6514L35.0996 30H34.0264ZM35.1064 30V28.5986L35.4688 28.25H36.5488V29.6514L36.1797 30H35.1064ZM36.1865 30V28.5986L36.5488 28.25H37.6289V29.6514L37.2598 30H36.1865ZM37.2666 30V28.5986L37.6289 28.25H38.709V29.6514L38.3398 30H37.2666ZM38.3467 30V28.5986L38.709 28.25H39.7891V29.6514L39.4199 30H38.3467ZM39.4268 30V28.5986L39.7891 28.25H40.8691V29.6514L40.5 30H39.4268ZM40.5068 30V28.585L40.8691 28.25H41.0811C42.1885 28.25 42.7422 27.7829 42.7422 26.8486C42.7422 26.3018 42.5143 25.6296 42.0586 24.832L43.5283 24.2031C43.9749 25.0918 44.1982 25.9873 44.1982 26.8896C44.1982 27.8923 43.9271 28.6624 43.3848 29.2002C42.847 29.7334 42.0791 30 41.0811 30H40.5068ZM42.0449 33.0967L40.9102 31.9619L42.0449 30.8271L43.1797 31.9619L42.0449 33.0967ZM45.9551 30V19.8486H47.5479V30H45.9551ZM50.2686 33.4043C49.7855 33.4043 49.3389 33.361 48.9287 33.2744V31.5244C49.5029 31.6201 50.002 31.668 50.4258 31.668C52.1895 31.668 53.2354 31.112 53.5635 30H52.3262C51.3737 30 50.6468 29.7607 50.1455 29.2822C49.6488 28.8037 49.4004 28.1133 49.4004 27.2109C49.4004 26.6595 49.5189 26.1468 49.7559 25.6729C49.9974 25.1943 50.3278 24.8115 50.7471 24.5244C51.1709 24.2373 51.6335 24.0938 52.1348 24.0938C53.0326 24.0938 53.7139 24.4333 54.1787 25.1123C54.6436 25.7913 54.876 26.7712 54.876 28.0518V28.25H55.6074V29.6377L55.2383 30H54.6846C54.4248 31.1211 53.9235 31.9688 53.1807 32.543C52.4424 33.1172 51.4717 33.4043 50.2686 33.4043ZM50.6104 27.0879C50.6104 27.8626 51.1823 28.25 52.3262 28.25H53.6729C53.6683 27.4616 53.5111 26.8555 53.2012 26.4316C52.8958 26.0033 52.4652 25.7891 51.9092 25.7891C51.5492 25.7891 51.2415 25.9167 50.9863 26.1719C50.7357 26.4271 50.6104 26.7324 50.6104 27.0879ZM55.2451 30V28.5986L55.6074 28.25H56.6875V29.6514L56.3184 30H55.2451ZM56.3252 30V28.5986L56.6875 28.25H57.7676V29.6514L57.3984 30H56.3252ZM57.4053 30V28.5986L57.7676 28.25H58.8477V29.6514L58.4785 30H57.4053ZM58.4854 30V28.5986L58.8477 28.25C59.431 28.25 59.8617 28.1383 60.1396 27.915C60.4176 27.6917 60.5566 27.3454 60.5566 26.876V25.1123H61.9307V26.876C61.9307 27.3454 62.0697 27.6917 62.3477 27.915C62.6257 28.1383 63.054 28.25 63.6328 28.25V29.6377L63.2705 30C61.9671 30 61.1605 29.4212 60.8506 28.2637C60.7184 28.8516 60.4564 29.2891 60.0645 29.5762C59.6771 29.8587 59.1507 30 58.4854 30ZM61.2129 33.0967L60.0781 31.9619L61.2129 30.8271L62.3477 31.9619L61.2129 33.0967ZM63.2705 30V28.5986L63.6328 28.25H63.7285C64.2891 28.25 64.7061 28.127 64.9795 27.8809C65.2575 27.6302 65.3965 27.2497 65.3965 26.7393V19.8486H66.9961V26.7119C66.9961 27.7327 66.709 28.5371 66.1348 29.125C65.5651 29.7083 64.7835 30 63.79 30H63.2705ZM69.2656 30V19.8486H70.8584V30H69.2656ZM18.584 49.0361C17.8594 49.0361 17.276 48.8151 16.834 48.373C16.3965 47.9264 16.1777 47.3385 16.1777 46.6094C16.1777 45.9076 16.3988 45.2969 16.8408 44.7773C17.2829 44.2533 17.9255 43.8431 18.7686 43.5469L20.4639 42.959V41.7969H22.0566V46.7803C22.0566 47.2816 22.1911 47.653 22.46 47.8945C22.7334 48.1315 23.1549 48.25 23.7246 48.25V49.6377L23.3623 50C22.5238 50 21.8743 49.8245 21.4141 49.4736C20.9538 49.1182 20.6598 48.5758 20.5322 47.8467C20.1676 48.6396 19.5182 49.0361 18.584 49.0361ZM19.2334 40.9014L18.1396 39.8076L19.2334 38.7139L20.1562 39.6367L21.0791 38.7139L22.1729 39.8076L21.0791 40.9014L20.1562 39.9785L19.2334 40.9014ZM17.4219 46.3154C17.4219 46.6025 17.5426 46.8327 17.7842 47.0059C18.0257 47.1745 18.3538 47.2588 18.7686 47.2588C19.8988 47.2588 20.4639 46.8418 20.4639 46.0078V44.374L18.8232 44.9619C17.889 45.29 17.4219 45.7412 17.4219 46.3154ZM23.3623 50V48.5986L23.7246 48.25C24.3079 48.25 24.7386 48.1383 25.0166 47.915C25.2946 47.6917 25.4336 47.3454 25.4336 46.876V45.1123H26.8076V46.876C26.8076 47.3454 26.9466 47.6917 27.2246 47.915C27.5026 48.1383 27.931 48.25 28.5098 48.25V49.6377L28.1475 50C26.8441 50 26.0374 49.4212 25.7275 48.2637C25.5954 48.8516 25.3333 49.2891 24.9414 49.5762C24.554 49.8587 24.0277 50 23.3623 50ZM25.1807 53.0488L24.0869 51.9619L25.1807 50.8682L26.1035 51.791L27.0264 50.8682L28.1201 51.9619L27.0264 53.0488L26.1035 52.126L25.1807 53.0488ZM28.1475 50V48.585L28.5098 48.25H28.7217C29.8291 48.25 30.3828 47.7829 30.3828 46.8486C30.3828 46.3018 30.1549 45.6296 29.6992 44.832L31.1689 44.2031C31.6156 45.0918 31.8389 45.9873 31.8389 46.8896C31.8389 47.8923 31.5677 48.6624 31.0254 49.2002C30.4876 49.7334 29.7197 50 28.7217 50H28.1475ZM30.4307 43.4307L29.2959 42.3027L30.4307 41.168L31.5586 42.3027L30.4307 43.4307ZM34.04 52.8984C33.5342 52.8984 33.0876 52.8574 32.7002 52.7754V51.0049C33.1787 51.1006 33.6549 51.1484 34.1289 51.1484C35.1771 51.1484 35.986 50.9593 36.5557 50.5811C37.1299 50.2028 37.4352 49.6582 37.4717 48.9473C37.016 49.2025 36.5033 49.3301 35.9336 49.3301C34.0924 49.3301 33.1719 48.4004 33.1719 46.541C33.1719 45.9896 33.2904 45.4746 33.5273 44.9961C33.7689 44.513 34.0993 44.1279 34.5186 43.8408C34.9424 43.5492 35.4049 43.4033 35.9062 43.4033C36.8086 43.4033 37.4945 43.7633 37.9639 44.4834C38.4378 45.2035 38.6748 46.2357 38.6748 47.5801C38.6748 49.3301 38.2806 50.654 37.4922 51.5518C36.7083 52.4495 35.5576 52.8984 34.04 52.8984ZM34.3818 46.4043C34.3818 46.8053 34.5186 47.1016 34.792 47.293C35.07 47.4844 35.4961 47.5801 36.0703 47.5801C36.6172 47.5801 37.0798 47.4867 37.458 47.2998C37.417 46.5889 37.2415 46.0443 36.9316 45.666C36.6263 45.2878 36.2093 45.0986 35.6807 45.0986C35.3206 45.0986 35.013 45.2285 34.7578 45.4883C34.5072 45.7435 34.3818 46.0488 34.3818 46.4043ZM49.2021 50C48.2816 50 47.6003 49.7516 47.1582 49.2549C46.7207 48.7581 46.4974 47.9902 46.4883 46.9512C46.1237 47.7031 45.5176 48.0791 44.6699 48.0791C44.1504 48.0791 43.7106 47.9401 43.3506 47.6621L43.3643 48.2363C43.3643 49.6992 43.0612 50.8431 42.4551 51.668C41.8535 52.4974 41.0013 52.9121 39.8984 52.9121C39.5247 52.9121 39.1465 52.8665 38.7637 52.7754V50.9912C39.2012 51.0869 39.5885 51.1348 39.9258 51.1348C40.6823 51.1348 41.2793 50.8613 41.7168 50.3145C42.1543 49.7721 42.373 49.0521 42.373 48.1543C42.373 47.3613 42.1406 46.418 41.6758 45.3242L43.1592 44.6953C43.4235 45.2969 43.6969 45.7184 43.9795 45.96C44.262 46.1969 44.6221 46.3154 45.0596 46.3154C46.012 46.3154 46.4883 45.748 46.4883 44.6133V44.2715H47.876V46.7803C47.876 47.2816 48.0127 47.653 48.2861 47.8945C48.5641 48.1315 48.9971 48.25 49.585 48.25V49.6377L49.2021 50ZM46.208 43.3896L45.1143 42.3027L46.208 41.209L47.1309 42.1318L48.0605 41.209L49.1475 42.3027L48.0605 43.3896L47.1309 42.4668L46.208 43.3896ZM49.2158 50V48.5986L49.5781 48.25H50.1387C50.7083 48.25 51.1367 48.1543 51.4238 47.9629C51.7155 47.7669 51.8613 47.5072 51.8613 47.1836C51.8613 46.9147 51.736 46.5911 51.4854 46.2129C51.2393 45.8301 50.7243 45.1693 49.9404 44.2305V42.583L55.7236 39.7529V41.4619L51.2871 43.5059V43.5469C51.6699 43.8841 51.9821 44.2441 52.2236 44.627L53.1328 46.0352C53.7025 46.9193 54.1787 47.5094 54.5615 47.8057C54.9443 48.1019 55.4251 48.25 56.0039 48.25V49.6377L55.6279 50C55.0264 50 54.484 49.8268 54.001 49.4805C53.5179 49.1296 53.0052 48.5189 52.4629 47.6484C52.39 48.3913 52.1416 48.9701 51.7178 49.3848C51.2939 49.7949 50.6787 50 49.8721 50H49.2158ZM55.6416 50V48.5986L56.0039 48.25H56.0996C56.6602 48.25 57.0771 48.127 57.3506 47.8809C57.6286 47.6302 57.7676 47.2497 57.7676 46.7393V39.8486H59.3672V46.7119C59.3672 47.7327 59.0801 48.5371 58.5059 49.125C57.9362 49.7083 57.1546 50 56.1611 50H55.6416ZM61.3154 50V48.5713L63.8926 46.124L64.4668 45.5635C63.7741 45.0485 62.4798 44.3854 60.584 43.5742V41.7832C62.7988 42.7767 64.3825 43.6585 65.335 44.4287C65.5674 43.9867 65.6836 43.3988 65.6836 42.665V39.8486H67.1943V42.5693C67.1943 43.1162 67.1214 43.5947 66.9756 44.0049C66.8343 44.415 66.5768 44.8411 66.2031 45.2832C66.5677 45.7253 66.8229 46.2015 66.9688 46.7119C67.1191 47.2178 67.1943 47.8102 67.1943 48.4893V50H61.3154ZM61.876 53.6094V52.8027L62.4092 52.7002C62.1813 52.4313 62.0674 52.1374 62.0674 51.8184C62.0674 51.4629 62.1836 51.1803 62.416 50.9707C62.6484 50.7611 62.9401 50.6562 63.291 50.6562C63.5508 50.6562 63.79 50.7201 64.0088 50.8477C64.2275 50.9753 64.3984 51.1462 64.5215 51.3604L63.8311 51.8184C63.7217 51.6315 63.5462 51.5381 63.3047 51.5381C63.1543 51.5381 63.0335 51.5723 62.9424 51.6406C62.8558 51.709 62.8125 51.8024 62.8125 51.9209C62.8125 52.1032 62.9242 52.2399 63.1475 52.3311C63.3753 52.4222 63.6738 52.4382 64.043 52.3789L64.7471 52.2695V53.0967L61.876 53.6094ZM63.1338 48.2773H66.0186C65.9775 47.4753 65.7201 46.7985 65.2461 46.2471L65.041 46.4316L63.1338 48.2773ZM69.2656 50V39.8486H70.8584V50H69.2656Z" fill="white"/>
</svg>
