<svg width="97" height="34" viewBox="0 0 97 34" fill="none" xmlns="http://www.w3.org/2000/svg">
<path d="M96.1319 26.1863H93.4997C93.4241 26.1863 93.3636 26.1044 93.3939 26.0225L94.8007 21.3375C94.8309 21.2556 94.7704 21.1737 94.6948 21.1737H90.9584C90.913 21.1737 90.8676 21.2065 90.8525 21.2556L89.4003 26.088C89.3851 26.1372 89.3398 26.1699 89.2944 26.1699H85.1041C85.0285 26.1699 84.968 26.088 84.9982 26.0061L86.4051 21.3212C86.4353 21.2393 86.3748 21.1573 86.2992 21.1573H82.6989C82.6535 21.1573 82.6081 21.1901 82.593 21.2393L78.8112 33.8362C78.7809 33.9181 78.8414 34 78.9171 34H82.5174C82.5627 34 82.6081 33.9672 82.6233 33.9181L84.0755 29.0693C84.0906 29.0202 84.136 28.9874 84.1814 28.9874H88.3716C88.4472 28.9874 88.5078 29.0693 88.4775 29.1512L87.0707 33.8362C87.0404 33.9181 87.1009 34 87.1766 34H90.913C90.9584 34 91.0038 33.9672 91.0189 33.9181L92.4711 29.0693C92.4862 29.0202 92.5316 28.9874 92.577 28.9874H95.3453C95.3907 28.9874 95.436 28.9547 95.4512 28.9055L96.2075 26.3665C96.268 26.2682 96.2075 26.1863 96.1319 26.1863Z" fill="#D11C69"/>
<path d="M60.5375 21.1736H50.6745C50.6291 21.1736 50.5837 21.2064 50.5686 21.2555L46.8019 33.8197C46.7716 33.9016 46.8322 33.9835 46.9078 33.9835H50.5081C50.5535 33.9835 50.5988 33.9508 50.614 33.9016L51.3703 31.3298C51.3855 31.2807 51.4308 31.2479 51.4762 31.2479H55.6665C55.7421 31.2479 55.8026 31.3298 55.7724 31.4117L55.0614 33.8197C55.0311 33.9016 55.0916 33.9835 55.1673 33.9835H58.9037C58.9491 33.9835 58.9945 33.9508 59.0096 33.9016L62.1107 23.5489C62.4889 22.3858 61.672 21.1736 60.5375 21.1736ZM56.4531 28.9709H52.2628C52.1872 28.9709 52.1267 28.889 52.157 28.8071L53.594 24.0239C53.6092 23.9748 53.6546 23.942 53.6999 23.942H57.8902C57.9658 23.942 58.0263 24.0239 57.9961 24.1058L56.559 28.889C56.5439 28.9382 56.4985 28.9709 56.4531 28.9709Z" fill="#D11C69"/>
<path d="M21.0552 21.2718L17.2885 33.836C17.2582 33.9179 17.3187 33.9998 17.3944 33.9998H26.4253C26.4707 33.9998 26.5161 33.967 26.5312 33.9179L27.2876 31.3952C27.3178 31.3133 27.2573 31.2314 27.1817 31.2314H21.5241C21.4485 31.2314 21.388 31.1495 21.4182 31.0676L21.9931 29.0691C22.0082 29.02 22.0536 28.9872 22.0989 28.9872H27.9229C27.9683 28.9872 28.0137 28.9545 28.0288 28.9053L28.7852 26.3663C28.8154 26.2844 28.7549 26.2025 28.6793 26.2025H23.0066C22.9309 26.2025 22.8704 26.1206 22.9007 26.0387L23.4906 24.0566C23.5058 24.0074 23.5512 23.9746 23.5965 23.9746H29.4205C29.4659 23.9746 29.5113 23.9419 29.5264 23.8927L30.2828 21.3701C30.313 21.2882 30.2525 21.2063 30.1769 21.2063H21.1459C21.1157 21.1735 21.0703 21.2063 21.0552 21.2718Z" fill="#D11C69"/>
<path d="M10.6784 21.1735H1.11795C1.07257 21.1735 1.02719 21.2063 1.01206 21.2554L0.255701 23.7781C0.225446 23.86 0.285955 23.9419 0.361591 23.9419H2.97861C3.05424 23.9419 3.11475 24.0238 3.0845 24.1057L0.164939 33.8196C0.134684 33.9015 0.195193 33.9834 0.270829 33.9834H8.33366C11.586 33.9834 14.4753 31.7065 15.4889 28.3648C16.5629 24.8101 14.1123 21.1735 10.6784 21.1735ZM11.7222 27.5785C11.2683 29.1019 9.95228 30.1339 8.4698 30.1339H4.46108L6.14021 24.5316H9.67999C11.1473 24.5316 12.176 26.0714 11.7222 27.5785Z" fill="#D11C69"/>
<path d="M43.5194 21.1736H34.1103C34.0649 21.1736 34.0195 21.2064 34.0044 21.2555L30.2377 33.8197C30.2074 33.9016 30.2679 33.9835 30.3436 33.9835H34.0044C34.0498 33.9835 34.0951 33.9508 34.1103 33.9016L35.5625 29.0692C35.5776 29.0037 35.623 28.9709 35.6835 28.9709H36.0012C36.0466 28.9709 36.0919 29.0037 36.1222 29.0528L38.1946 33.918C38.2098 33.9671 38.2551 33.9835 38.3005 33.9835H42.5362C42.6269 33.9835 42.6874 33.8688 42.6269 33.7869L39.7225 28.9709H41.7949C42.8841 28.9709 43.8522 28.2174 44.185 27.0871L45.2137 23.6799C45.5767 22.4513 44.7296 21.1736 43.5194 21.1736ZM40.4789 26.1862H36.576C36.5004 26.1862 36.4399 26.1043 36.4701 26.0224L37.0601 24.0403C37.0752 23.9911 37.1206 23.9584 37.166 23.9584H41.0688C41.1445 23.9584 41.205 24.0403 41.1747 24.1222L40.5847 26.1043C40.5696 26.1534 40.5394 26.1862 40.4789 26.1862Z" fill="#D11C69"/>
<path d="M76.1788 21.1735H66.331C66.2856 21.1735 66.2402 21.2063 66.2251 21.2554L62.4584 33.8196C62.4281 33.9015 62.4886 33.9834 62.5643 33.9834H66.1646C66.21 33.9834 66.2553 33.9507 66.2705 33.9015L67.0268 31.3297C67.0419 31.2806 67.0873 31.2478 67.1327 31.2478H71.323C71.3986 31.2478 71.4591 31.3297 71.4289 31.4116L70.7179 33.8196C70.6876 33.9015 70.7481 33.9834 70.8238 33.9834H74.5602C74.6056 33.9834 74.651 33.9507 74.6661 33.9015L77.7672 23.5488C78.1302 22.3857 77.3134 21.1735 76.1788 21.1735ZM72.0793 28.9708H67.8891C67.8134 28.9708 67.7529 28.8889 67.7832 28.807L69.2203 24.0238C69.2354 23.9747 69.2808 23.9419 69.3262 23.9419H73.5164C73.5921 23.9419 73.6526 24.0238 73.6223 24.1057L72.1852 28.8889C72.1852 28.9381 72.1398 28.9708 72.0793 28.9708Z" fill="#D11C69"/>
<path d="M66.3617 8.92761H56.1508C56.0146 8.92761 55.9087 8.82933 55.8633 8.69828L55.0465 5.96266C54.986 5.74971 55.1221 5.53676 55.3339 5.53676H65.1515C65.3481 5.53676 65.4994 5.32381 65.4389 5.11086L64.4708 1.88381C64.4254 1.75276 64.3195 1.65448 64.1833 1.65448H51.6126C50.7503 1.65448 50.1301 2.57181 50.4024 3.45638L51.9151 8.48533C51.9756 8.69828 51.8395 8.91123 51.6277 8.91123H20.3748C20.2386 8.91123 20.1328 8.81295 20.0874 8.6819L17.546 0.229332C17.5006 0.0982846 17.3947 0 17.2586 0H13.7491C13.5524 0 13.4011 0.212953 13.4616 0.425905L13.7037 1.22857C13.7642 1.44152 13.628 1.65448 13.4163 1.65448H2.72128C1.94979 1.65448 1.40521 2.47352 1.63211 3.25981L3.20535 8.48533C3.26586 8.69828 3.12971 8.91123 2.91793 8.91123H0.300915C0.10426 8.91123 -0.0470115 9.12418 0.0134975 9.33714L0.99677 12.6297C1.04215 12.7608 1.14804 12.859 1.28419 12.859H67.3298C67.5265 12.859 67.6777 12.6461 67.6172 12.4331L66.634 9.14057C66.6037 9.00952 66.4978 8.92761 66.3617 8.92761ZM7.19895 8.69828L6.38207 5.96266C6.32156 5.74971 6.45771 5.53676 6.66949 5.53676H14.7928C14.929 5.53676 15.0349 5.63505 15.0803 5.76609L15.8971 8.50171C15.9576 8.71466 15.8215 8.92761 15.6097 8.92761H7.48636C7.35022 8.92761 7.24433 8.82933 7.19895 8.69828Z" fill="#D11C69"/>
<path d="M68.9484 1.65485H72.1554C72.2915 1.65485 72.3974 1.75313 72.4428 1.88418L76.7843 16.3486C77.0869 17.3478 76.391 18.3634 75.4229 18.3634H67.708C67.5718 18.3634 67.4659 18.2651 67.4206 18.1341L66.4373 14.8906C66.3768 14.6777 66.5129 14.4647 66.7247 14.4647H71.9587C72.1554 14.4647 72.3067 14.2518 72.2462 14.0388L68.661 2.08075C68.6005 1.8678 68.7518 1.65485 68.9484 1.65485Z" fill="#D11C69"/>
<path d="M75.8311 1.65466H89.8541C89.9903 1.65466 90.0962 1.75295 90.1415 1.884L92.1837 8.69847C92.2291 8.82952 92.335 8.9278 92.4711 8.9278H94.8764C95.0125 8.9278 95.1184 9.02608 95.1638 9.15713L96.1471 12.4497C96.2076 12.6627 96.0714 12.8756 95.8596 12.8756H78.9927C78.8566 12.8756 78.7507 12.7773 78.7053 12.6463L77.7221 9.35371C77.6615 9.14075 77.7977 8.9278 78.0095 8.9278H87.706C87.9027 8.9278 88.054 8.71485 87.9935 8.50189L87.1766 5.76628C87.1312 5.63523 87.0253 5.53695 86.8892 5.53695H76.7993C76.6632 5.53695 76.5573 5.43866 76.5119 5.30761L75.5437 2.08057C75.4832 1.86762 75.6194 1.65466 75.8311 1.65466Z" fill="#D11C69"/>
</svg>
